<svg width="32" height="32" viewBox="0 0 32 32" fill="none" xmlns="http://www.w3.org/2000/svg">
<path d="M13.3333 22.6667C18.488 22.6667 22.6667 18.488 22.6667 13.3333C22.6667 8.17868 18.488 4 13.3333 4C8.17868 4 4 8.17868 4 13.3333C4 18.488 8.17868 22.6667 13.3333 22.6667Z" fill="#E4E7EB"/>
<path d="M21.76 19.8667L23.2267 21.3334C23.76 21.3067 24.3334 21.5067 24.7467 21.92L28.7467 25.92C29.1 26.2992 29.2923 26.8006 29.2832 27.3187C29.274 27.8369 29.0641 28.3312 28.6977 28.6977C28.3313 29.0641 27.8369 29.274 27.3188 29.2832C26.8006 29.2923 26.2992 29.1 25.92 28.7467L21.92 24.7467C21.7211 24.5487 21.566 24.311 21.4649 24.0491C21.3638 23.7873 21.319 23.507 21.3334 23.2267L19.8667 21.76C17.7237 23.4248 15.0267 24.2102 12.3249 23.9562C9.62311 23.7023 7.11969 22.4281 5.32437 20.3932C3.52905 18.3583 2.57682 15.7156 2.66158 13.0032C2.74634 10.2908 3.8617 7.71275 5.78057 5.79388C7.69944 3.87501 10.2775 2.75964 12.9899 2.67489C15.7023 2.59013 18.345 3.54235 20.3799 5.33767C22.4148 7.13299 23.689 9.63641 23.9429 12.3382C24.1968 15.04 23.4115 17.737 21.7467 19.88L21.76 19.8667ZM13.3334 21.3334C15.4551 21.3334 17.4899 20.4905 18.9902 18.9902C20.4905 17.4899 21.3334 15.4551 21.3334 13.3334C21.3334 11.2116 20.4905 9.17679 18.9902 7.6765C17.4899 6.17621 15.4551 5.33335 13.3334 5.33335C11.2116 5.33335 9.17682 6.17621 7.67652 7.6765C6.17623 9.17679 5.33338 11.2116 5.33338 13.3334C5.33338 15.4551 6.17623 17.4899 7.67652 18.9902C9.17682 20.4905 11.2116 21.3334 13.3334 21.3334Z" fill="#2D3A8C"/>
</svg>
